<svg xmlns="http://www.w3.org/2000/svg" viewBox="0 0 24 24" fill="none">
  <path d="M19 3H5c-1.11 0-2 .58-2.59 2.59-2.59V5c0-1.42 0-2.59-.58-2.59-2.59-2.59-2.59H5c-1.11 0-2 .58-2.59 2.59-2.59V5c0-1.42 0-2.59-.58-2.59-2.59-2.59z" fill="currentColor"/>
  <path d="M9.66 10.17l-5.66-5.66 1.41 1.41L12 12l7.83-7.83c.78-.78.78-1.41-1.41L17.66 10.17c.78.78 0 1.41-1.41 0-1.41-1.41-1.41z" fill="currentColor"/>
  <path d="M20.71 7.04c.39-.04.78-.86.78-1.36 0-.78 0-.78-1.36-1.36 0-.78h-2.75c-.85 0-1.71-.85-1.71-1.71-.85-.85-.85-.85v-.15c0 .46.31.69.69.69.69.69.31.46.85.85.85.85.15.15 0 .46.31.69.69.69.69-.31.46-.85-.85-.85-.85-.85z" fill="currentColor"/>
</svg>
